#!OML:ASF H:\ColoradoDance\Project 1\Capture day 1\Session 8\male.ASF
:FULLY-SPECIFIED
:DEGREES
73
upperback -3.662620 2.689980 1.515680
rfoot -25.958599 -8.087760
lradius 20.001600
lthumb 18.584200 424.130005
rradius 22.561600
lwrist -23.981600
rhand -38.607201 -10.753600
rhumerus -13.028300 -1.455110 -67.057503
lowerneck -5.552410 3.904700 7.408040
lhand -7.297970 -325.002991
ltibia 63.645100
head 1.921530 2.368550 -4.228280
rwrist 13.177800
lfingers 7.125020
rtoes -10.734000
lowerback 3.714760 1.706590 5.060230
rfingers 7.125020
lclavicle -0.000000 -0.000000
upperneck 1.354670 5.005050 -9.230920
rfemur -35.363098 -5.430530 26.820000
thorax -5.741600 1.154210 -1.483360
rclavicle -0.000000 -0.000000
rtibia 53.956600
lfoot -19.853500 14.313000
lhumerus -36.766399 8.389530 44.671398
rthumb -11.624900 -40.411201
root -4.072970 18.615601 -30.505100 373.792999 -6.477360 -367.007996
ltoes -3.193400
lfemur -46.299400 16.962799 -12.698300
74
upperback -4.314470 9.744430 -1.676180
rfoot 6.545650 -9.751530
lradius 16.836300
lthumb 17.151300 429.772003
rradius 28.415400
lwrist -34.040401
rhand -38.368301 -8.250420
rhumerus -17.548300 3.704000 -78.349602
lowerneck -1.649360 8.047720 12.157400
lhand -8.787190 -319.490997
ltibia 29.638100
head 3.144560 5.447860 -3.973990
rwrist 11.080800
lfingers 7.125020
rtoes -49.369701
lowerback 1.282380 7.226060 3.333060
rfingers 7.125020
lclavicle -0.000000 -0.000000
upperneck 5.940780 10.853900 -8.173270
rfemur 6.062810 -4.602540 26.967600
thorax -4.341710 4.709460 -3.990150
rclavicle -0.000000 -0.000000
rtibia 26.214500
lfoot 4.894990 35.584000
lhumerus -60.341099 19.315701 27.004400
rthumb -11.394500 -37.920799
root -3.549100 19.932199 -24.603600 365.339996 15.661500 -368.065002
ltoes 11.271100
lfemur -37.428200 -1.230640 -18.730700
75
upperback -4.245490 9.162510 -2.576010
rfoot 27.577299 14.902700
lradius 16.267200
lthumb 12.797200 416.118988
rradius 29.216999
lwrist -24.952700
rhand -33.258900 0.453731
rhumerus -33.559898 0.377731 -79.597397
lowerneck 2.231960 11.925700 13.426200
lhand -13.307000 -333.468994
ltibia 29.236200
head 2.812080 8.358160 -3.697190
rwrist 13.214200
lfingers 7.125020
rtoes -40.351700
lowerback 1.061790 6.816550 2.814750
rfingers 7.125020
lclavicle 0.000000 -0.000000
upperneck 4.963200 16.466499 -7.157280
rfemur -2.272830 -3.107780 20.850000
thorax -4.127250 4.442800 -4.580800
rclavicle 0.000000 -0.000000
rtibia 37.112900
lfoot 5.462150 8.259980
lhumerus -54.853600 17.095800 38.302601
rthumb -6.464140 -29.427601
root -2.665220 20.822901 -19.532200 353.714996 62.870300 -377.222992
ltoes -10.678800
lfemur -21.713200 -12.064200 -16.687901
76
upperback -4.370290 5.975000 -1.020670
rfoot 19.698900 -10.204600
lradius 20.815201
lthumb -2.311170 402.631989
rradius 25.213600
lwrist -17.688200
rhand 13.236800 3.599890
rhumerus -43.606499 -3.963890 -71.456596
lowerneck -2.490370 7.113750 8.978960
lhand -28.958000 -347.334991
ltibia 29.156700
head 2.924290 4.761800 -3.180280
rwrist 18.777300
lfingers 7.125020
rtoes -18.661400
lowerback 1.401410 4.342780 2.963780
rfingers 7.125020
lclavicle -0.000000 0.000000
upperneck 5.139930 9.480340 -5.901760
rfemur -4.706160 13.835600 11.311800
thorax -4.898040 2.868520 -3.026170
rclavicle -0.000000 0.000000
rtibia 26.436600
lfoot 1.158670 12.340100
lhumerus -45.182598 16.993200 53.617901
rthumb 38.189499 -22.147499
root -2.230530 20.806299 -15.119700 204.511993 64.427597 -529.398010
ltoes -10.375300
lfemur -26.918301 -10.061600 -11.267100
77
upperback -3.134200 6.034700 -0.341317
rfoot -8.142610 -4.163400
lradius 22.992399
lthumb 2.368830 423.662994
rradius 22.908600
lwrist -9.851670
rhand -32.671799 -10.525100
rhumerus -39.342800 -3.213610 -63.287998
lowerneck -4.920000 -2.707250 2.386470
lhand -24.112400 -326.303986
ltibia 24.824301
head 2.549930 -1.817980 -1.115590
rwrist 21.486500
lfingers 7.125020
rtoes -30.089399
lowerback 3.787410 4.304110 3.958810
rfingers 7.125020
lclavicle -0.000000 -0.000000
upperneck 5.604620 -3.662540 -1.782450
rfemur -5.852010 1.840160 20.719400
thorax -4.928030 2.868720 -3.021100
rclavicle -0.000000 -0.000000
rtibia 28.847401
lfoot 14.568700 13.138000
lhumerus -41.144901 11.262600 56.430401
rthumb -5.897400 -40.423000
root -1.781990 19.933800 -10.005200 193.436005 22.180700 -536.666016
ltoes 2.899880
lfemur -43.574600 -22.455500 4.371320
